<svg xmlns="http://www.w3.org/2000/svg" class="svg-logo-dfs" viewBox="5 5 100 90"><g fill="none" fill-rule="evenodd"><path fill="#c0311a" d="M 45.502 85.989 C 23.12 85.989 5 67.903 5 45.608 C 5 23.298 23.12 5.22 45.502 5.22 c 22.39 0 40.532 18.077 40.532 40.387 c 0 22.295 -18.142 40.381 -40.532 40.381"/><path fill="#fff" d="M 25.351 57.003 c -2.011 0 -3.428 -0.254 -3.722 -0.606 c -0.367 -0.35 -0.367 -2.984 -0.367 -10.034 v -6.211 c 0 -3.47 0.046 -4.399 0.354 -4.667 c 0.254 -0.21 0.667 -0.321 2.114 -0.321 c 6.214 0 9.507 3.79 9.507 10.967 c 0 6.91 -2.873 10.872 -7.886 10.872 m -0.78 -24 c -0.405 0 -0.855 0.029 -1.373 0.06 c -0.728 0.053 -1.538 0.104 -2.59 0.104 c -1.68 0 -4.192 -0.059 -5.123 -0.163 h -0.052 c -0.392 -0.03 -0.878 -0.009 -0.961 0.426 c -0.09 0.455 0.473 0.642 0.96 0.791 c 0.84 0.27 1.688 0.396 1.802 0.815 c 0.247 0.794 0.284 5.891 0.284 10.99 c 0 4.868 -0.074 10.303 -0.284 11.11 c -0.128 0.412 -0.962 0.533 -1.801 0.81 c -0.488 0.148 -1.051 0.327 -0.961 0.791 c 0.083 0.426 0.57 0.448 0.96 0.418 h 0.053 c 0.931 -0.104 3.444 -0.156 5.124 -0.156 c 1.051 0 2.101 0.06 2.829 0.112 c 0.54 0.037 1.253 0.06 1.606 0.06 c 3.45 0 6.617 -1.414 8.913 -3.97 c 2.17 -2.4 3.407 -5.675 3.407 -8.964 c 0 -3.709 -1.013 -6.87 -2.94 -9.174 c -2.245 -2.7 -5.554 -4.06 -9.852 -4.06 M 57.87 35.953 c -0.023 -2.646 -0.075 -2.976 -0.652 -2.946 c -1.659 0.06 -3.751 0.165 -7.818 0.165 c -3.333 0 -5.793 -0.06 -7.97 -0.172 h -0.021 c -0.444 -0.023 -0.87 0.007 -0.983 0.36 c -0.135 0.448 0.263 0.665 0.78 0.843 c 0.39 0.12 1.725 0.36 1.853 0.846 c 0.27 0.74 0.308 5.854 0.308 10.99 c 0 5.181 -0.037 10.355 -0.308 11.095 c -0.158 0.449 -1.066 0.531 -1.913 0.807 c -0.503 0.158 -1.051 0.33 -0.96 0.801 c 0.074 0.419 0.57 0.441 0.96 0.419 h 0.044 c 0.94 -0.099 2.342 -0.165 4.022 -0.165 c 1.667 0 3.189 0.066 4.128 0.165 h 0.06 c 0.382 0.022 0.877 0 0.952 -0.419 c 0.09 -0.471 -0.473 -0.643 -0.952 -0.8 c -0.849 -0.277 -1.795 -0.381 -1.99 -0.808 c -0.27 -0.56 -0.299 -3.245 -0.299 -5.831 c 0 -1.833 -0.06 -4.18 0.18 -4.382 c 0.15 -0.202 0.78 -0.246 2.356 -0.246 c 2.754 0 3.106 0.023 3.676 2.362 c 0.083 0.403 0.3 1.099 0.765 1.07 c 0.48 -0.03 0.556 -0.658 0.548 -1.07 c -0.023 -0.403 -0.067 -1.18 -0.067 -3.387 c 0 -2.198 0.044 -2.976 0.067 -3.364 c 0.008 -0.418 -0.067 -1.054 -0.548 -1.084 c -0.464 -0.03 -0.682 0.673 -0.765 1.077 c -0.57 2.347 -0.922 2.331 -3.676 2.331 c -1.643 0 -1.958 0.031 -2.274 -0.327 c -0.315 -0.383 -0.285 -3.455 -0.285 -4.015 c 0 -1.967 0.014 -3.852 0.285 -4.546 c 0.165 -0.471 0.713 -0.583 2.934 -0.583 c 3.714 0 4.278 0.374 4.9 0.83 c 0.63 0.463 1.282 2.137 1.546 2.78 c 0.165 0.352 0.405 0.778 0.907 0.68 c 0.278 -0.044 0.443 -0.291 0.383 -0.926 c -0.016 -0.38 -0.158 -1.674 -0.173 -2.55 M 71.308 43.802 c -2.625 -1.713 -4.884 -3.185 -4.884 -5.704 c 0 -2.595 2.079 -3.522 3.849 -3.522 c 1.793 0 2.836 0.734 3.48 1.353 c 0.812 0.77 1.337 2.055 1.607 2.773 c 0.128 0.337 0.375 0.734 0.699 0.69 c 0.374 -0.061 0.396 -0.441 0.396 -0.95 c 0 -0.51 -0.044 -1.205 -0.088 -2.087 a 43.248 43.248 0 0 0 -0.077 -1.75 c -0.037 -0.492 -0.15 -0.568 -0.584 -0.851 c -0.398 -0.239 -2.29 -1.257 -4.81 -1.257 c -4.81 0 -8.044 2.558 -8.044 6.7 c 0 3.67 3.017 5.742 5.95 7.656 c 2.822 1.846 5.493 3.59 5.493 6.616 c 0 3.559 -2.747 4.09 -4.39 4.09 c -1.74 0 -3.196 -0.434 -4.193 -1.398 c -1.073 -1.024 -1.885 -2.835 -2.53 -5.017 c -0.142 -0.479 -0.404 -0.867 -0.84 -0.83 c -0.412 0.037 -0.54 0.411 -0.495 1.27 c 0.053 0.793 0.105 2.25 0.15 2.977 c 0.038 0.547 0.09 1.988 0.09 2.205 c 0.037 0.412 0.428 0.636 0.691 0.838 c 0.277 0.194 2.671 2.071 6.535 2.071 c 5.89 0 8.568 -3.64 8.568 -7.013 c 0 -4.56 -3.496 -6.85 -6.573 -8.86"/></g></svg>